<svg width="46" height="46" viewBox="0 0 46 46" fill="none" xmlns="http://www.w3.org/2000/svg">
<path d="M18.3895 31.775C18.5055 31.775 18.6311 31.7363 18.7665 31.659C18.8825 31.5817 18.9888 31.5237 19.0855 31.485L28.2205 25.192C28.5105 24.9987 28.7231 24.8053 28.8585 24.612C28.9938 24.3993 29.0615 24.1577 29.0615 23.887V23.365C29.0615 23.0943 28.9938 22.8623 28.8585 22.669C28.7231 22.4757 28.5105 22.2727 28.2205 22.06L19.0855 15.796C18.9888 15.738 18.8825 15.6703 18.7665 15.593C18.6311 15.5157 18.5055 15.477 18.3895 15.477C18.2348 15.477 18.0995 15.535 17.9835 15.651C17.8675 15.7477 17.8095 15.8927 17.8095 16.086V17.362C17.8095 17.5747 17.8675 17.7583 17.9835 17.913C18.0995 18.0483 18.2638 18.1837 18.4765 18.319L26.2485 23.626L18.4765 28.933C18.2638 29.0877 18.0995 29.2327 17.9835 29.368C17.8675 29.5033 17.8095 29.687 17.8095 29.919V31.195C17.8095 31.369 17.8675 31.514 17.9835 31.63C18.0995 31.7267 18.2348 31.775 18.3895 31.775Z" fill="#5617D2"/>
<rect x="0.605469" y="1" width="44" height="44" rx="22" stroke="#5617D2"/>
</svg>
