<svg width="46" height="46" viewBox="0 0 46 46" fill="none" xmlns="http://www.w3.org/2000/svg">
<path d="M26.8215 31.775C26.7055 31.775 26.5798 31.7363 26.4445 31.659C26.3285 31.5817 26.2221 31.5237 26.1255 31.485L16.9905 25.192C16.7005 24.9987 16.4878 24.8053 16.3525 24.612C16.2171 24.3993 16.1495 24.1577 16.1495 23.887V23.365C16.1495 23.0943 16.2171 22.8623 16.3525 22.669C16.4878 22.4757 16.7005 22.2727 16.9905 22.06L26.1255 15.796C26.2221 15.738 26.3285 15.6703 26.4445 15.593C26.5798 15.5157 26.7055 15.477 26.8215 15.477C26.9761 15.477 27.1115 15.535 27.2275 15.651C27.3435 15.7477 27.4015 15.8927 27.4015 16.086V17.362C27.4015 17.5747 27.3435 17.7583 27.2275 17.913C27.1115 18.0483 26.9471 18.1837 26.7345 18.319L18.9625 23.626L26.7345 28.933C26.9471 29.0877 27.1115 29.2327 27.2275 29.368C27.3435 29.5033 27.4015 29.687 27.4015 29.919V31.195C27.4015 31.369 27.3435 31.514 27.2275 31.63C27.1115 31.7267 26.9761 31.775 26.8215 31.775Z" fill="#5617D2"/>
<rect x="0.605469" y="1" width="44" height="44" rx="22" stroke="#5617D2"/>
</svg>
