<?xml version="1.0" standalone="no"?>
<!DOCTYPE svg PUBLIC "-//W3C//DTD SVG 20010904//EN"
 "http://www.w3.org/TR/2001/REC-SVG-20010904/DTD/svg10.dtd">
<svg version="1.0" xmlns="http://www.w3.org/2000/svg"
 width="1120.000000pt" height="1120.000000pt" viewBox="0 0 1120.000000 1120.000000"
 preserveAspectRatio="xMidYMid meet">
<metadata>
Created by potrace 1.14, written by Peter Selinger 2001-2017
</metadata>
<g transform="translate(0.000000,1120.000000) scale(0.100000,-0.100000)"
fill="#000000" stroke="none">
<path d="M7228 8484 c-3 -2 -39 -7 -79 -9 -41 -2 -96 -7 -124 -10 -70 -8 -198
-25 -221 -29 -10 -2 -41 -7 -67 -10 -27 -4 -59 -9 -70 -12 -12 -2 -35 -7 -52
-10 -65 -12 -262 -55 -290 -64 -16 -5 -41 -11 -55 -14 -131 -25 -593 -187
-733 -258 -58 -29 -178 -100 -200 -119 -7 -5 -73 -55 -147 -111 -74 -56 -137
-104 -140 -107 -3 -3 -23 -19 -45 -36 -77 -57 -249 -236 -398 -415 -101 -122
-92 -111 -140 -175 -20 -27 -40 -54 -45 -60 -81 -105 -258 -379 -312 -485 -62
-122 -36 -276 65 -375 61 -61 133 -90 219 -89 76 1 93 4 147 27 44 18 131 102
150 145 7 17 17 32 21 32 5 0 8 5 8 11 0 12 101 173 112 177 5 2 8 8 8 12 0
11 130 196 159 227 12 12 21 25 21 28 0 4 6 12 13 19 6 7 24 28 39 47 65 84
170 200 264 293 94 94 337 284 439 344 39 22 115 58 170 80 55 21 109 43 120
47 11 4 25 9 32 10 6 2 51 17 100 33 48 17 106 36 128 42 89 25 151 42 168 46
9 2 26 6 37 9 38 10 56 13 160 34 58 12 121 24 140 27 19 3 46 7 60 10 27 5
79 11 150 19 25 3 63 7 85 9 45 5 260 17 348 20 31 1 57 -3 57 -8 0 -5 5 -5
13 1 6 5 57 7 112 6 55 -2 109 -3 120 -2 15 0 228 0 290 -1 37 0 334 0 350 1
16 0 242 0 290 -1 6 0 150 1 320 1 283 2 386 -2 455 -16 14 -3 41 -7 60 -10
19 -3 60 -12 90 -20 30 -9 65 -18 78 -21 21 -4 112 -35 157 -54 11 -4 74 -34
140 -66 114 -56 125 -64 234 -174 62 -63 125 -132 139 -152 13 -21 28 -38 32
-38 9 0 99 -178 106 -210 4 -14 9 -47 14 -75 4 -27 7 -772 6 -1655 l-1 -1605
-29 -72 c-15 -40 -32 -73 -37 -73 -5 0 -9 -7 -9 -16 0 -8 -31 -46 -69 -83 -83
-83 -171 -129 -281 -148 -14 -2 -2239 -5 -4945 -6 l-4920 -2 -58 -30 c-33 -16
-78 -51 -102 -78 -143 -158 -95 -403 97 -504 l53 -28 4955 -2 c4801 -2 4958
-2 5057 16 238 44 446 153 613 321 30 30 66 70 80 89 14 18 30 38 35 44 20 23
65 97 65 106 0 5 3 11 8 13 10 4 46 81 76 160 27 72 52 170 63 251 10 66 10
3270 0 3357 -6 60 -15 108 -36 200 -14 61 -69 193 -111 264 -22 37 -40 72 -40
76 0 5 -4 10 -8 12 -4 2 -27 30 -50 62 -103 146 -390 436 -462 469 -8 4 -33
18 -55 32 -65 40 -248 128 -330 158 -22 8 -49 18 -60 23 -11 4 -22 8 -25 9 -3
1 -30 9 -60 19 -105 33 -201 55 -405 93 -44 8 -2309 15 -2317 7z"/>
<path d="M387 5604 c-1 -2 -23 -4 -47 -4 -107 -4 -182 -33 -245 -98 -70 -71
-90 -123 -90 -227 1 -155 83 -263 241 -312 20 -7 609 -10 1615 -10 1734 0
1624 -4 1715 58 168 115 187 362 38 499 -50 46 -108 75 -169 85 -53 8 -141 9
-154 1 -5 -4 -12 -2 -15 3 -3 5 -20 5 -38 2 -18 -4 -50 -4 -70 0 -21 3 -38 3
-38 -1 0 -4 -18 -4 -40 0 -22 4 -40 4 -40 0 0 -5 -8 -6 -17 -4 -28 7 -223 10
-223 3 0 -4 -81 3 -93 9 -1 1 -19 -3 -40 -7 -20 -5 -39 -5 -42 -1 -3 4 -19 4
-37 1 -18 -4 -50 -4 -70 0 -21 3 -38 3 -38 -1 0 -4 -18 -4 -40 0 -22 4 -40 4
-40 0 0 -5 -8 -6 -18 -4 -27 7 -222 10 -222 3 0 -3 -20 -3 -45 1 -55 8 -53 8
-93 -1 -17 -4 -34 -3 -37 1 -3 4 -19 4 -37 1 -18 -4 -50 -4 -70 0 -21 3 -38 3
-38 -1 0 -4 -18 -4 -40 0 -22 4 -40 4 -40 0 0 -5 -8 -6 -17 -4 -28 7 -223 10
-223 3 0 -3 -20 -3 -45 1 -55 8 -53 8 -93 -1 -17 -4 -34 -3 -37 1 -3 4 -19 4
-37 1 -18 -4 -50 -4 -70 0 -21 3 -38 3 -38 -1 0 -4 -18 -4 -40 0 -22 4 -40 4
-40 0 0 -5 -8 -6 -17 -4 -28 7 -223 10 -223 3 0 -4 -81 3 -93 9 -1 1 -19 -3
-40 -7 -20 -5 -39 -5 -42 -1 -3 4 -19 4 -37 1 -18 -4 -50 -4 -70 0 -21 3 -38
3 -38 -1 0 -4 -18 -4 -40 0 -22 4 -40 4 -40 0 0 -3 -23 -4 -50 0 -28 4 -51 5
-53 4z"/>
</g>
</svg>
