<svg width="22" height="14" viewBox="0 0 22 14" fill="none" xmlns="http://www.w3.org/2000/svg">
<path d="M1.3748 0.777344C2.09667 0.777344 3.19667 0.777344 3.81542 0.777344C4.1248 0.777344 4.36542 0.983594 4.46855 1.25859C4.77792 2.15234 5.46542 4.11172 6.25605 5.45234C7.32167 7.20547 8.00917 7.85859 8.45605 7.78984C8.90292 7.68672 8.76542 6.51797 8.76542 5.58984C8.76542 4.66172 8.86855 3.08047 8.42167 2.35859L7.73417 1.36172C7.5623 1.12109 7.73417 0.811719 8.00917 0.811719H11.9279C12.306 0.811719 12.6154 1.12109 12.6154 1.49922V6.48359C12.6154 6.48359 12.7873 7.37734 13.7498 6.44922C14.7123 5.52109 15.7435 3.80234 16.6029 2.04922L16.9467 1.22422C17.0498 0.983594 17.2904 0.811719 17.5654 0.811719H20.1092C20.5904 0.811719 20.9342 1.29297 20.7623 1.73984L20.4873 2.46172C20.4873 2.46172 19.5592 4.31797 18.5967 5.62422C17.6342 6.96484 17.4279 7.27422 17.5654 7.61797C17.7029 7.96172 20.1779 10.2648 20.7967 11.3648C20.9685 11.6742 21.106 11.9492 21.2435 12.1898C21.4842 12.6367 21.1404 13.2211 20.6248 13.2211H17.7373C17.4967 13.2211 17.2561 13.0836 17.1529 12.8773L16.8779 12.4305C16.8779 12.4305 15.1248 10.368 14.0592 9.71484C12.9592 9.09609 12.9935 9.98984 12.9935 9.98984V11.8117C12.9935 12.568 12.3748 13.1867 11.6185 13.1867H10.931C10.931 13.1867 7.1498 13.1867 4.1248 8.68359C1.75292 5.17734 0.962298 2.90859 0.687298 1.60234C0.618548 1.18984 0.927924 0.777344 1.3748 0.777344Z" fill="white"/>
</svg>
